<?xml version="1.0" encoding="UTF-8"?>
<svg xmlns="http://www.w3.org/2000/svg" xmlns:xlink="http://www.w3.org/1999/xlink" width="672.06pt" height="719.19pt" viewBox="0 0 672.06 719.19" version="1.1">
<defs>
<clipPath id="clip1">
  <path d="M 0 0 L 672.058594 0 L 672.058594 719.191406 L 0 719.191406 Z M 0 0 "/>
</clipPath>
</defs>
<g id="surface1">
<g clip-path="url(#clip1)" clip-rule="nonzero">
<path style=" stroke:none;fill-rule:nonzero;fill:rgb(46.665955%,73.724365%,12.156677%);fill-opacity:1;" d="M 339.175781 505.746094 L 391.363281 277.863281 L 451.160156 277.863281 L 465.914063 213.449219 L 275.738281 213.449219 L 260.972656 277.863281 L 319.527344 277.863281 L 267.332031 505.746094 Z M 122.105469 271.730469 L 135.398438 271.730469 C 163.207031 271.730469 176.71875 285.316406 171.488281 308.105469 C 166.265625 330.890625 146.96875 344.476563 118.726563 344.476563 L 105.4375 344.476563 Z M 74.328125 567.097656 C 57.703125 545.207031 62.226563 529.886719 64.667969 517.644531 L 94.1875 397.386719 L 140.824219 505.746094 L 226.710938 505.746094 L 166.910156 386.109375 C 208.566406 376.46875 236.363281 347.539063 246.402344 303.71875 C 251.929688 279.621094 248.636719 255.960938 237.5 239.308594 C 225.40625 221.335938 206.875 213.449219 175.320313 213.449219 L 63.621094 213.449219 L 0.492188 489.015625 C -1.460938 504.589844 2.785156 517.980469 6.578125 526.058594 C 56.386719 632.484375 186.53125 719.191406 324.164063 719.191406 C 427.027344 719.191406 519.6875 675.75 584.953125 606.308594 C 523.265625 666.417969 439.046875 703.515625 346.128906 703.515625 C 234.359375 703.515625 137.347656 650.015625 74.328125 567.097656 M 651.152344 212.261719 L 650.25 210.246094 C 593.976563 86.25 469.195313 0.00390625 324.164063 0.00390625 C 221.3125 0.00390625 128.699219 43.414063 63.410156 112.875 C 125.089844 52.761719 209.300781 15.679688 302.210938 15.679688 C 438.335938 15.679688 555.847656 95.179688 611.003906 210.246094 L 578.03125 210.246094 C 521.996094 210.246094 474.652344 242.058594 461.195313 300.785156 C 455.367188 326.207031 458.117188 345.042969 468.910156 357.753906 C 477.179688 366.953125 487.917969 372.648438 517.265625 382.292969 C 548.492188 392.8125 556.332031 400.261719 552.722656 416.039063 C 548.8125 433.128906 532.5 444.527344 511.316406 444.527344 L 423.390625 444.527344 L 407.878906 508.933594 L 498.640625 508.933594 C 566.738281 508.933594 615.445313 478.4375 630.488281 412.703125 C 640.121094 370.636719 625.726563 346.527344 580.960938 331.640625 C 558.273438 323.757813 555.558594 322.875 552.238281 321.113281 C 541.171875 314.980469 536.65625 307.535156 538.761719 298.332031 C 541.976563 284.304688 558.191406 273.359375 575.21875 273.359375 L 634.015625 273.359375 L 634.015625 273.328125 L 672.058594 273.328125 C 666.925781 252.175781 659.863281 231.765625 651.152344 212.261719 "/>
</g>
</g>
</svg>
